# Blender 3.6.4
# www.blender.org
mtllib worker lying flat.mtl
o 820ADA6943371BBA715D227079935E85AAB19D1C_SouthMeeple_(1)
v -4.883000 8.000000 -1.353999
v -4.510000 8.000000 -2.024999
v -4.510000 0.000000 -2.025000
v -4.883000 8.000000 -1.353999
v -4.510000 0.000000 -2.025000
v -4.883000 0.000000 -1.354000
v -4.510000 8.000000 -2.024999
v -4.004000 8.000000 -2.732999
v -4.004000 0.000000 -2.733000
v -4.510000 8.000000 -2.024999
v -4.004000 0.000000 -2.733000
v -4.510000 0.000000 -2.025000
v 4.455000 0.000000 -0.185000
v 4.700000 0.000000 -0.847000
v 4.700000 8.000000 -0.846999
v 4.455000 0.000000 -0.185000
v 4.700000 8.000000 -0.846999
v 4.455000 8.000000 -0.184999
v 4.700000 0.000000 -0.847000
v 4.103000 0.000000 -2.104000
v 4.103000 8.000000 -2.103999
v 4.700000 0.000000 -0.847000
v 4.103000 8.000000 -2.103999
v 4.700000 8.000000 -0.846999
v 4.683000 0.000001 -7.780000
v 4.823000 0.000001 -9.897000
v 4.823000 8.000001 -9.896999
v 4.683000 0.000001 -7.780000
v 4.823000 8.000001 -9.896999
v 4.683000 8.000001 -7.780000
v 3.597000 0.000000 -2.795000
v 4.256000 0.000000 -5.451000
v 4.256000 8.000000 -5.451000
v 3.597000 0.000000 -2.795000
v 4.256000 8.000000 -5.451000
v 3.597000 8.000000 -2.794999
v 3.597000 0.000000 -2.795000
v 3.597000 8.000000 -2.794999
v 4.103000 0.000000 -2.104000
v 4.103000 8.000000 -2.103999
v 4.103000 0.000000 -2.104000
v 3.597000 8.000000 -2.794999
v -5.000000 0.000001 -7.069000
v -5.000000 8.000001 -7.068999
v -5.169000 8.000001 -9.896999
v -5.000000 0.000001 -7.069000
v -5.169000 8.000001 -9.896999
v -5.169000 0.000001 -9.897000
v -4.651000 0.000000 -4.701000
v -4.651000 8.000000 -4.701000
v -5.000000 8.000001 -7.068999
v -4.651000 0.000000 -4.701000
v -5.000000 8.000001 -7.068999
v -5.000000 0.000001 -7.069000
v -4.371000 0.000000 -3.618000
v -4.371000 8.000000 -3.617999
v -4.651000 8.000000 -4.701000
v -4.371000 0.000000 -3.618000
v -4.651000 8.000000 -4.701000
v -4.651000 0.000000 -4.701000
v -4.004000 8.000000 -2.732999
v -4.371000 8.000000 -3.617999
v -4.371000 0.000000 -3.618000
v -4.004000 8.000000 -2.732999
v -4.371000 0.000000 -3.618000
v -4.004000 0.000000 -2.733000
v -4.883000 8.000000 -1.353999
v -4.883000 0.000000 -1.354000
v -5.107000 0.000000 -0.658000
v -4.883000 8.000000 -1.353999
v -5.107000 0.000000 -0.658000
v -5.107000 8.000000 -0.657999
v -5.052000 0.000000 -0.320000
v -5.052000 8.000000 -0.319999
v -5.107000 8.000000 -0.657999
v -5.052000 0.000000 -0.320000
v -5.107000 8.000000 -0.657999
v -5.107000 0.000000 -0.658000
v 2.645000 -0.000000 6.410000
v 3.224000 -0.000000 5.528000
v 3.224000 8.000000 5.528000
v 2.645000 -0.000000 6.410000
v 3.224000 8.000000 5.528000
v 2.645000 8.000000 6.410000
v 3.224000 -0.000000 5.528000
v 3.439000 -0.000000 4.982000
v 3.439000 8.000000 4.982000
v 3.224000 -0.000000 5.528000
v 3.439000 8.000000 4.982000
v 3.224000 8.000000 5.528000
v 3.439000 -0.000000 4.982000
v 3.538000 -0.000000 3.835000
v 3.538000 8.000000 3.835001
v 3.439000 -0.000000 4.982000
v 3.538000 8.000000 3.835001
v 3.439000 8.000000 4.982000
v 3.538000 -0.000000 3.835000
v 3.175000 -0.000000 2.758000
v 3.175000 8.000000 2.758001
v 3.538000 -0.000000 3.835000
v 3.175000 8.000000 2.758001
v 3.538000 8.000000 3.835001
v 3.175000 -0.000000 2.758000
v 2.665000 -0.000000 1.626000
v 2.665000 8.000000 1.626001
v 3.175000 -0.000000 2.758000
v 2.665000 8.000000 1.626001
v 3.175000 8.000000 2.758001
v 2.800000 -0.000000 1.352000
v 2.800000 8.000000 1.352001
v 2.665000 -0.000000 1.626000
v 2.665000 8.000000 1.626001
v 2.665000 -0.000000 1.626000
v 2.800000 8.000000 1.352001
v 2.800000 8.000000 1.352001
v 2.800000 -0.000000 1.352000
v 3.796000 -0.000000 0.535000
v 2.800000 8.000000 1.352001
v 3.796000 -0.000000 0.535000
v 3.796000 8.000000 0.535001
v 4.455000 8.000000 -0.184999
v 3.796000 8.000000 0.535001
v 4.455000 0.000000 -0.185000
v 3.796000 -0.000000 0.535000
v 4.455000 0.000000 -0.185000
v 3.796000 8.000000 0.535001
v 4.256000 8.000000 -5.451000
v 4.256000 0.000000 -5.451000
v 4.683000 0.000001 -7.780000
v 4.256000 8.000000 -5.451000
v 4.683000 0.000001 -7.780000
v 4.683000 8.000001 -7.780000
v -2.499000 8.000000 7.360001
v -3.365000 8.000000 6.068000
v -3.365000 -0.000000 6.068000
v -2.499000 8.000000 7.360001
v -3.365000 -0.000000 6.068000
v -2.499000 -0.000001 7.360000
v -2.499000 8.000000 7.360001
v -2.499000 -0.000001 7.360000
v -1.741000 -0.000001 9.098000
v -2.499000 8.000000 7.360001
v -1.741000 -0.000001 9.098000
v -1.741000 8.000000 9.098001
v -1.741000 -0.000001 9.098000
v -1.345000 -0.000001 9.044000
v -1.345000 8.000000 9.044001
v -1.741000 -0.000001 9.098000
v -1.345000 8.000000 9.044001
v -1.741000 8.000000 9.098001
v -5.052000 8.000000 -0.319999
v -5.052000 0.000000 -0.320000
v -4.830000 8.000000 0.023001
v -4.830000 -0.000000 0.023000
v -4.830000 8.000000 0.023001
v -5.052000 0.000000 -0.320000
v -4.830000 -0.000000 0.023000
v -4.101000 -0.000000 0.664000
v -4.101000 8.000000 0.664001
v -4.830000 -0.000000 0.023000
v -4.101000 8.000000 0.664001
v -4.830000 8.000000 0.023001
v -4.101000 -0.000000 0.664000
v -3.004000 -0.000000 1.326000
v -3.004000 8.000000 1.326001
v -4.101000 -0.000000 0.664000
v -3.004000 8.000000 1.326001
v -4.101000 8.000000 0.664001
v -2.948000 8.000000 1.603001
v -3.004000 8.000000 1.326001
v -3.004000 -0.000000 1.326000
v -2.948000 8.000000 1.603001
v -3.004000 -0.000000 1.326000
v -2.948000 -0.000000 1.603000
v -3.640000 -0.000000 2.665000
v -2.948000 8.000000 1.603001
v -2.948000 -0.000000 1.603000
v 4.256000 8.000000 -5.451000
v 4.683000 8.000001 -7.780000
v -5.000000 8.000001 -7.068999
v -4.830000 8.000000 0.023001
v -4.883000 8.000000 -1.353999
v -5.052000 8.000000 -0.319999
v 4.455000 8.000000 -0.184999
v 4.700000 8.000000 -0.846999
v -3.004000 8.000000 1.326001
v 4.700000 8.000000 -0.846999
v 4.103000 8.000000 -2.103999
v -3.004000 8.000000 1.326001
v 4.103000 8.000000 -2.103999
v 3.597000 8.000000 -2.794999
v -3.004000 8.000000 1.326001
v 3.597000 8.000000 -2.794999
v -4.004000 8.000000 -2.732999
v -3.004000 8.000000 1.326001
v -4.510000 8.000000 -2.024999
v -3.004000 8.000000 1.326001
v -4.004000 8.000000 -2.732999
v -4.883000 8.000000 -1.353999
v -4.101000 8.000000 0.664001
v -4.510000 8.000000 -2.024999
v -5.107000 8.000000 -0.657999
v -5.052000 8.000000 -0.319999
v -4.883000 8.000000 -1.353999
v -4.069000 8.000000 4.495000
v -4.069000 -0.000000 4.495000
v -3.365000 -0.000000 6.068000
v -4.069000 8.000000 4.495000
v -3.365000 -0.000000 6.068000
v -3.365000 8.000000 6.068000
v -1.345000 8.000000 9.044001
v -1.345000 -0.000001 9.044000
v -1.031000 -0.000001 8.836000
v -1.345000 8.000000 9.044001
v -1.031000 -0.000001 8.836000
v -1.031000 8.000000 8.836001
v -0.522000 -0.000001 8.210000
v 2.645000 -0.000000 6.410000
v 2.645000 8.000000 6.410000
v -0.522000 -0.000001 8.210000
v 2.645000 8.000000 6.410000
v -0.522000 8.000000 8.210001
v -1.031000 -0.000001 8.836000
v -0.522000 -0.000001 8.210000
v -0.522000 8.000000 8.210001
v -1.031000 -0.000001 8.836000
v -0.522000 8.000000 8.210001
v -1.031000 8.000000 8.836001
v -2.948000 8.000000 1.603001
v -3.640000 -0.000000 2.665000
v -3.640000 8.000000 2.665001
v -4.116000 -0.000000 3.739000
v -4.116000 8.000000 3.739001
v -3.640000 -0.000000 2.665000
v -3.640000 -0.000000 2.665000
v -4.116000 8.000000 3.739001
v -3.640000 8.000000 2.665001
v -4.069000 8.000000 4.495000
v -4.116000 8.000000 3.739001
v -4.116000 -0.000000 3.739000
v -4.069000 8.000000 4.495000
v -4.116000 -0.000000 3.739000
v -4.069000 -0.000000 4.495000
v -1.031000 8.000000 8.836001
v -0.522000 8.000000 8.210001
v -2.499000 8.000000 7.360001
v -3.365000 8.000000 6.068000
v -2.499000 8.000000 7.360001
v 2.645000 8.000000 6.410000
v -3.640000 8.000000 2.665001
v -4.116000 8.000000 3.739001
v 2.645000 8.000000 6.410000
v -1.345000 8.000000 9.044001
v -1.031000 8.000000 8.836001
v -2.499000 8.000000 7.360001
v -4.069000 8.000000 4.495000
v 2.645000 8.000000 6.410000
v -4.116000 8.000000 3.739001
v -1.741000 8.000000 9.098001
v -1.345000 8.000000 9.044001
v -2.499000 8.000000 7.360001
v -3.004000 8.000000 1.326001
v -4.510000 8.000000 -2.024999
v -4.101000 8.000000 0.664001
v -4.830000 8.000000 0.023001
v -4.101000 8.000000 0.664001
v -4.883000 8.000000 -1.353999
v -3.640000 8.000000 2.665001
v 2.645000 8.000000 6.410000
v -2.948000 8.000000 1.603001
v 3.175000 8.000000 2.758001
v 2.665000 8.000000 1.626001
v -2.948000 8.000000 1.603001
v 3.175000 8.000000 2.758001
v -2.948000 8.000000 1.603001
v 3.538000 8.000000 3.835001
v 3.439000 8.000000 4.982000
v 3.538000 8.000000 3.835001
v -2.948000 8.000000 1.603001
v 3.224000 8.000000 5.528000
v 3.439000 8.000000 4.982000
v -2.948000 8.000000 1.603001
v 2.645000 8.000000 6.410000
v 3.224000 8.000000 5.528000
v -2.948000 8.000000 1.603001
v 2.800000 8.000000 1.352001
v -3.004000 8.000000 1.326001
v 2.665000 8.000000 1.626001
v 4.455000 8.000000 -0.184999
v -3.004000 8.000000 1.326001
v 3.796000 8.000000 0.535001
v 2.800000 8.000000 1.352001
v 3.796000 8.000000 0.535001
v -3.004000 8.000000 1.326001
v -3.004000 8.000000 1.326001
v -2.948000 8.000000 1.603001
v 2.665000 8.000000 1.626001
v -5.169000 8.000001 -9.896999
v -5.000000 8.000001 -7.068999
v 4.683000 8.000001 -7.780000
v 4.823000 8.000001 -9.896999
v -5.169000 8.000001 -9.896999
v 4.683000 8.000001 -7.780000
v -5.000000 8.000001 -7.068999
v -4.651000 8.000000 -4.701000
v 4.256000 8.000000 -5.451000
v 3.597000 8.000000 -2.794999
v 4.256000 8.000000 -5.451000
v -4.004000 8.000000 -2.732999
v -4.371000 8.000000 -3.617999
v -4.004000 8.000000 -2.732999
v 4.256000 8.000000 -5.451000
v -4.651000 8.000000 -4.701000
v -4.371000 8.000000 -3.617999
v 4.256000 8.000000 -5.451000
v 3.439000 -0.000000 4.982000
v -2.948000 -0.000000 1.603000
v 3.538000 -0.000000 3.835000
v 3.224000 -0.000000 5.528000
v -2.948000 -0.000000 1.603000
v 3.439000 -0.000000 4.982000
v 2.645000 -0.000000 6.410000
v -2.948000 -0.000000 1.603000
v 3.224000 -0.000000 5.528000
v 3.175000 -0.000000 2.758000
v 3.538000 -0.000000 3.835000
v -2.948000 -0.000000 1.603000
v 2.665000 -0.000000 1.626000
v 3.175000 -0.000000 2.758000
v -2.948000 -0.000000 1.603000
v 2.800000 -0.000000 1.352000
v 4.103000 0.000000 -2.104000
v 3.796000 -0.000000 0.535000
v 3.597000 0.000000 -2.795000
v -4.004000 0.000000 -2.733000
v 4.256000 0.000000 -5.451000
v 4.683000 0.000001 -7.780000
v 4.256000 0.000000 -5.451000
v -5.000000 0.000001 -7.069000
v -5.000000 0.000001 -7.069000
v -5.169000 0.000001 -9.897000
v 4.683000 0.000001 -7.780000
v 4.823000 0.000001 -9.897000
v 4.683000 0.000001 -7.780000
v -5.169000 0.000001 -9.897000
v -4.371000 0.000000 -3.618000
v -4.651000 0.000000 -4.701000
v 4.256000 0.000000 -5.451000
v -4.651000 0.000000 -4.701000
v -5.000000 0.000001 -7.069000
v 4.256000 0.000000 -5.451000
v -4.004000 0.000000 -2.733000
v -4.371000 0.000000 -3.618000
v 4.256000 0.000000 -5.451000
v 3.796000 -0.000000 0.535000
v 4.103000 0.000000 -2.104000
v 4.455000 0.000000 -0.185000
v 4.700000 0.000000 -0.847000
v 4.455000 0.000000 -0.185000
v 4.103000 0.000000 -2.104000
v 2.800000 -0.000000 1.352000
v -3.004000 -0.000000 1.326000
v 4.103000 0.000000 -2.104000
v -4.883000 0.000000 -1.354000
v 4.103000 0.000000 -2.104000
v -5.107000 0.000000 -0.658000
v -5.052000 0.000000 -0.320000
v -5.107000 0.000000 -0.658000
v 4.103000 0.000000 -2.104000
v -4.830000 -0.000000 0.023000
v -5.052000 0.000000 -0.320000
v 4.103000 0.000000 -2.104000
v 4.103000 0.000000 -2.104000
v -4.883000 0.000000 -1.354000
v -4.510000 0.000000 -2.025000
v -4.004000 0.000000 -2.733000
v 4.103000 0.000000 -2.104000
v -4.510000 0.000000 -2.025000
v 3.597000 0.000000 -2.795000
v 4.103000 0.000000 -2.104000
v -4.004000 0.000000 -2.733000
v -0.522000 8.000000 8.210001
v 2.645000 8.000000 6.410000
v -2.499000 8.000000 7.360001
v -3.365000 8.000000 6.068000
v 2.645000 8.000000 6.410000
v -4.069000 8.000000 4.495000
v 4.823000 0.000001 -9.897000
v -5.169000 8.000001 -9.896999
v 4.823000 8.000001 -9.896999
v -5.169000 0.000001 -9.897000
v -5.169000 8.000001 -9.896999
v 4.823000 0.000001 -9.897000
v -3.640000 -0.000000 2.665000
v 2.645000 -0.000000 6.410000
v -4.116000 -0.000000 3.739000
v -0.522000 -0.000001 8.210000
v -2.499000 -0.000001 7.360000
v 2.645000 -0.000000 6.410000
v -4.069000 -0.000000 4.495000
v -4.116000 -0.000000 3.739000
v 2.645000 -0.000000 6.410000
v -1.345000 -0.000001 9.044000
v -1.741000 -0.000001 9.098000
v -2.499000 -0.000001 7.360000
v -3.365000 -0.000000 6.068000
v 2.645000 -0.000000 6.410000
v -2.499000 -0.000001 7.360000
v -0.522000 -0.000001 8.210000
v -1.031000 -0.000001 8.836000
v -2.499000 -0.000001 7.360000
v -1.345000 -0.000001 9.044000
v -2.499000 -0.000001 7.360000
v -1.031000 -0.000001 8.836000
v -3.004000 -0.000000 1.326000
v -4.101000 -0.000000 0.664000
v 4.103000 0.000000 -2.104000
v -4.830000 -0.000000 0.023000
v 4.103000 0.000000 -2.104000
v -4.101000 -0.000000 0.664000
v -3.365000 -0.000000 6.068000
v -4.069000 -0.000000 4.495000
v 2.645000 -0.000000 6.410000
v -3.640000 -0.000000 2.665000
v -2.948000 -0.000000 1.603000
v 2.645000 -0.000000 6.410000
v -2.948000 -0.000000 1.603000
v -3.004000 -0.000000 1.326000
v 2.665000 -0.000000 1.626000
v 2.800000 -0.000000 1.352000
v 2.665000 -0.000000 1.626000
v -3.004000 -0.000000 1.326000
vn -0.8740 -0.0000 -0.4859
vn -0.8136 -0.0000 -0.5815
vn 0.9378 -0.0000 0.3471
vn 0.9033 -0.0000 -0.4290
vn 0.9978 -0.0000 0.0660
vn 0.9706 -0.0000 0.2408
vn 0.8068 -0.0000 -0.5908
vn -0.9982 -0.0000 0.0597
vn -0.9893 -0.0000 0.1458
vn -0.9682 -0.0000 0.2503
vn -0.9237 -0.0000 0.3831
vn -0.9519 -0.0000 -0.3064
vn -0.9870 -0.0000 0.1606
vn 0.8360 -0.0000 0.5488
vn 0.9305 -0.0000 0.3664
vn 0.9963 -0.0000 0.0860
vn 0.9476 -0.0000 -0.3194
vn 0.9117 -0.0000 -0.4108
vn 0.8970 -0.0000 0.4420
vn 0.6342 -0.0000 0.7732
vn 0.7377 -0.0000 0.6752
vn 0.9836 -0.0000 0.1803
vn -0.8307 -0.0000 0.5568
vn -0.9166 -0.0000 0.3998
vn 0.1351 -0.0000 0.9908
vn -0.8395 -0.0000 0.5434
vn -0.6603 -0.0000 0.7510
vn -0.5167 -0.0000 0.8562
vn -0.9802 -0.0000 0.1982
vn -0.8378 -0.0000 -0.5459
vn -0.0000 1.0000 -0.0000
vn -0.9128 -0.0000 0.4085
vn 0.5522 -0.0000 0.8337
vn 0.4941 -0.0000 0.8694
vn 0.7759 -0.0000 0.6309
vn -0.9142 -0.0000 -0.4052
vn -0.9981 -0.0000 0.0621
vn -0.9981 -0.0000 0.0620
vn -0.0000 -1.0000 -0.0000
vn -0.0000 -0.0000 -1.0000
s 0
usemtl Material.001
f 1//1 2//1 3//1
f 4//1 5//1 6//1
f 7//2 8//2 9//2
f 10//2 11//2 12//2
f 13//3 14//3 15//3
f 16//3 17//3 18//3
f 19//4 20//4 21//4
f 22//4 23//4 24//4
f 25//5 26//5 27//5
f 28//5 29//5 30//5
f 31//6 32//6 33//6
f 34//6 35//6 36//6
f 37//7 38//7 39//7
f 40//7 41//7 42//7
f 43//8 44//8 45//8
f 46//8 47//8 48//8
f 49//9 50//9 51//9
f 52//9 53//9 54//9
f 55//10 56//10 57//10
f 58//10 59//10 60//10
f 61//11 62//11 63//11
f 64//11 65//11 66//11
f 67//12 68//12 69//12
f 70//12 71//12 72//12
f 73//13 74//13 75//13
f 76//13 77//13 78//13
f 79//14 80//14 81//14
f 82//14 83//14 84//14
f 85//15 86//15 87//15
f 88//15 89//15 90//15
f 91//16 92//16 93//16
f 94//16 95//16 96//16
f 97//17 98//17 99//17
f 100//17 101//17 102//17
f 103//18 104//18 105//18
f 106//18 107//18 108//18
f 109//19 110//19 111//19
f 112//19 113//19 114//19
f 115//20 116//20 117//20
f 118//20 119//20 120//20
f 121//21 122//21 123//21
f 124//21 125//21 126//21
f 127//22 128//22 129//22
f 130//22 131//22 132//22
f 133//23 134//23 135//23
f 136//23 137//23 138//23
f 139//24 140//24 141//24
f 142//24 143//24 144//24
f 145//25 146//25 147//25
f 148//25 149//25 150//25
f 151//26 152//26 153//26
f 154//26 155//26 156//26
f 157//27 158//27 159//27
f 160//27 161//27 162//27
f 163//28 164//28 165//28
f 166//28 167//28 168//28
f 169//29 170//29 171//29
f 172//29 173//29 174//29
f 175//30 176//30 177//30
f 178//31 179//31 180//31
f 181//31 182//31 183//31
f 184//31 185//31 186//31
f 187//31 188//31 189//31
f 190//31 191//31 192//31
f 193//31 194//31 195//31
f 196//31 197//31 198//31
f 199//31 200//31 201//31
f 202//31 203//31 204//31
f 205//32 206//32 207//32
f 208//32 209//32 210//32
f 211//33 212//33 213//33
f 214//33 215//33 216//33
f 217//34 218//34 219//34
f 220//34 221//34 222//34
f 223//35 224//35 225//35
f 226//35 227//35 228//35
f 229//30 230//30 231//30
f 232//36 233//36 234//36
f 235//36 236//36 237//36
f 238//37 239//37 240//37
f 241//38 242//38 243//38
f 244//31 245//31 246//31
f 247//31 248//31 249//31
f 250//31 251//31 252//31
f 253//31 254//31 255//31
f 256//31 257//31 258//31
f 259//31 260//31 261//31
f 262//31 263//31 264//31
f 265//31 266//31 267//31
f 268//31 269//31 270//31
f 271//31 272//31 273//31
f 274//31 275//31 276//31
f 277//31 278//31 279//31
f 280//31 281//31 282//31
f 283//31 284//31 285//31
f 286//31 287//31 288//31
f 289//31 290//31 291//31
f 292//31 293//31 294//31
f 295//31 296//31 297//31
f 298//31 299//31 300//31
f 301//31 302//31 303//31
f 304//31 305//31 306//31
f 307//31 308//31 309//31
f 310//31 311//31 312//31
f 313//31 314//31 315//31
f 316//39 317//39 318//39
f 319//39 320//39 321//39
f 322//39 323//39 324//39
f 325//39 326//39 327//39
f 328//39 329//39 330//39
f 331//39 332//39 333//39
f 334//39 335//39 336//39
f 337//39 338//39 339//39
f 340//39 341//39 342//39
f 343//39 344//39 345//39
f 346//39 347//39 348//39
f 349//39 350//39 351//39
f 352//39 353//39 354//39
f 355//39 356//39 357//39
f 358//39 359//39 360//39
f 361//39 362//39 363//39
f 364//39 365//39 366//39
f 367//39 368//39 369//39
f 370//39 371//39 372//39
f 373//39 374//39 375//39
f 376//39 377//39 378//39
f 379//39 380//39 381//39
f 382//31 383//31 384//31
f 385//31 386//31 387//31
f 388//40 389//40 390//40
f 391//40 392//40 393//40
f 394//39 395//39 396//39
f 397//39 398//39 399//39
f 400//39 401//39 402//39
f 403//39 404//39 405//39
f 406//39 407//39 408//39
f 409//39 410//39 411//39
f 412//39 413//39 414//39
f 415//39 416//39 417//39
f 418//39 419//39 420//39
f 421//39 422//39 423//39
f 424//39 425//39 426//39
f 427//39 428//39 429//39
f 430//39 431//39 432//39
